<svg xmlns="http://www.w3.org/2000/svg" viewBox="0 0 337.93 413.11"><defs><style>.cls-1{fill:#18a071;}.cls-2{fill:#16bc7f;}.cls-3{fill:#178f69;}.cls-4{fill:#167e60;}.cls-5{fill:#136251;}.cls-6{fill:#15d188;}.cls-7{fill:#13fca3;}.cls-8{fill:#14f097;}.cls-9{fill:#18ae76;}.cls-10{fill:#073334;}.cls-11{fill:#0f5145;}.cls-12{fill:#083838;}.cls-13{fill:#157159;}.cls-14{fill:#15e08f;}.cls-15{fill:#16a875;}</style></defs><g id="Layer_2" data-name="Layer 2"><g id="Layer_1-2" data-name="Layer 1"><path class="cls-1" d="M171.42,364.14q-21.84,11.64-43.7,23.25c-2.76,1.46-5.62,2.7-8.44,4,1.61-1.78,3-4,4.87-5.27,9.86-6.4,19.93-12.4,29.76-18.85,3.9-2.55,3.43-7.54-.1-10.74a18,18,0,0,1-5.1-7.07c-4.07-12.13-8.91-24.18-11.16-36.73-2.18-12.14-2-24.87-1.91-37.34,0-6.64,1.86-13.28,3-19.91a25.43,25.43,0,0,1,1.42-4.38c3.92-10.59,7.65-21.27,11.86-31.72,2.78-6.92,4.22-15.06,12-18.31.19,1.25.8,2.62.52,3.74-3.61,14.33-8.82,28.41-10.61,43a140.58,140.58,0,0,0,1.37,40c2.06,12.17,7.58,23.64,11.28,35.52,3.26,10.48,7.56,20.24,14.78,28.28l.15,5.49Z"/><path class="cls-2" d="M181.37,357.14l-.15-5.49c-.39-12.34-.19-24.76-1.35-37-1.21-12.85-3.64-25.58-5.71-38.33-1.58-9.73-4.77-19.39-4.89-29.11-.22-18,1.28-36.05,2.06-54.07q5-6,9.94-12l3.79.05-.06,2.63v2.66q.06,36,.14,72c0,4.43-.15,8.87-.14,13.31q.15,41.24.33,82.49Z"/><path class="cls-3" d="M181.27,181.14q-5,6-9.94,12-3.72,4-7.45,8c-7.76,3.25-9.2,11.39-12,18.31-4.21,10.45-7.94,21.13-11.86,31.72a25.43,25.43,0,0,0-1.42,4.38c-1.12,6.63-3,13.27-3,19.91,0,12.47-.27,25.2,1.91,37.34,2.25,12.55,7.09,24.6,11.16,36.73a18,18,0,0,0,5.1,7.07c3.53,3.2,4,8.19.1,10.74-9.83,6.45-19.9,12.45-29.76,18.85-1.91,1.25-3.26,3.49-4.87,5.27a1.5,1.5,0,0,1-.9.41l-1.72-.34c.44-11.65,1-23.31,1.24-35,.08-4.74-.73-9.49-1.13-14.23q0-14.66,0-29.3c0-6.83-.07-13.66.08-20.48.28-12.29.7-24.58,1.06-36.87,2.18-1.83,4.94-3.25,6.44-5.59,4.81-7.54,8.5-16,13.85-23,7.87-10.32,14-21.2,15.93-34.53,1.47-10.13,4.28-12.67,13.61-12.68,4.52,0,9.05,0,13.58.05C181.29,180.3,181.28,180.72,181.27,181.14Z"/><path class="cls-4" d="M116.66,391.5l1.72.34L79.53,413.11l-1-5.49c4.23-4.58,2.46-9.66,1.07-14.71q.15-17.25.28-34.5L82,359.63c.19,11.55.29,23.11.66,34.65.1,3,.25,7,1.94,8.76,1.33,1.42,5.23.74,7.73,0s4.57-2.94,7-4.06C105.08,396.36,110.89,394,116.66,391.5Z"/><path class="cls-5" d="M28.61,226.39c9.93-10.89,19.91-21.73,29.79-32.69,5.29-5.87,10.2-12.17,15.66-17.87,9.35-9.78,10.62-23.09,14-35.48.63-2.32.89-4.75,1.33-7.13L92,129.29l0,0a95.79,95.79,0,0,0,7.69-6.51c10.3-10.66,20.47-21.45,30.69-32.19.42-.45.83-.9,1.25-1.34l1.23-1.34c2.84.91,5.73,2.71,8.51,2.55,7.87-.47,15.71-1.73,23.55-2.72,2.15-.27,4.3-.7,6.44-1.06-4.24,5.1-7.8,11.25-12.88,15.08-9.22,7-18.85,13.82-29.21,18.35-12.32,5.4-17.77,17.35-25.33,27a37.18,37.18,0,0,0-7.1,27.49c.27,2.11.24,4.76-.72,6.48-6.05,10.84-2.07,22.41-1.9,33.52.08,4.9,4.17,9.72,6.44,14.58-5.55,6.15-11.24,12.17-16.58,18.51-2.68,3.18-4.74,7-7.08,10.47l-22.27.25,6.63-5.82c-1.42-3.45-2.52-7.6-4.67-11-4.46-7-9.82-13.57-1.81-21.73-1.27-.52-1.64-.82-2-.79-.6,0-1.36.62-1.77.39-7.44-4.17-12.38.26-17.37,5.41C32.63,226,30.35,225.91,28.61,226.39Z"/><path class="cls-6" d="M130.41,0h3.73l3.7.43,11.2,0,4.92,0h1.29l6.2,0,9.88,0L183.77.27h8.66l28.62,1-1,1.13a2.76,2.76,0,0,0,.53.18L242.07,5.4c1.84,5.23,4.32,10.33,5.35,15.75,1.25,6.56,1,13.43,1.9,20.1,1,7.73,3.23,15.35,3.61,23.09.27,5.57-.17,10.53,4.46,14.61,1.63,1.43,1.71,4.9,2.49,7.43q-3.45.15-6.9.27c-.82,0-1.65,0-2.47,0l-5.94-4C236.4,73,229.25,62.91,228.13,49.24c-1-12.13-2.15-24.26-3.56-36.34-.29-2.52-1.5-6.44-3.09-7a57.66,57.66,0,0,0-16-3.07c-10.52-.45-21.07-.13-31.61-.12l-26.05,0-18.58,0a71.94,71.94,0,0,1-8-.12c-3.46-.42-6.87-1.28-10.31-1.94l-.26-.53Z"/><path class="cls-7" d="M291.79,27.79C298.42,34.3,306,40,311.5,47.47c11.93,16.05,21,34.05,24.09,54.58,2.53,16.73,3.73,33.7-.16,50.47-2.43,10.45-5.24,20.8-7.89,31.19l0,0q-4.47,8-8.93,16.05c-6.41-4.49,1.09-8.18.6-12.42l-2.67-1.45c0-2.6.66-5.1-.12-6.88-2.55-5.84-6.87-11.1-8.26-17.17-4.43-19.35-7.69-39-11.74-58.45-1.34-6.42,1.38-13.25-3.27-19.5-3.73-5-6.53-11.25-3-18.43.87-1.76-.25-4.7-.58-7.08-.5-3.67-1.54-7.31-1.57-11,0-6.62-1.33-12.38-5.89-17.3-1.59-1.72-1.78-4.93-2.61-7.46l2-1.09c1.89,1.88,3.62,4,5.74,5.53C288.46,27.86,290.28,27.58,291.79,27.79Z"/><path class="cls-8" d="M291.79,27.79c-1.51-.21-3.33.07-4.47-.74-2.12-1.51-3.85-3.65-5.74-5.53l-2,1.09c.83,2.53,1,5.74,2.61,7.46,4.56,4.92,5.85,10.68,5.89,17.3,0,3.66,1.07,7.3,1.57,11,.33,2.38,1.45,5.32.58,7.08-3.56,7.18-.76,13.43,3,18.43,4.65,6.25,1.93,13.08,3.27,19.5,4.05,19.45,7.31,39.1,11.74,58.45,1.39,6.07,5.71,11.33,8.26,17.17.78,1.78.12,4.28.12,6.88l2.67,1.45c.49,4.24-7,7.93-.6,12.42l-10.87,16.05L295,227.66l-2.11,0a43.73,43.73,0,0,1,3.28-6c3.12-4.08,6.67-7.78,9.7-11.92,3.56-4.88,2.56-7.69-2.43-10.21-1.8-.91-3.31-3.14-4.31-5.14-10.55-21.1-12.63-44.58-16.13-67.64-1.38-9.08-2.19-18.26-3.76-27.29-2.45-14-8-27.23-7.66-42,.3-11.16-1.38-22.38-2.42-33.55a10,10,0,0,0-2.44-5.16C260.08,11,251.18,7.94,242.07,5.4L220.54,2.61a2.76,2.76,0,0,1-.53-.18l1-1.13,16.17.45,2.49.83,4.88.58,2.35.85C263.62,8.19,279.13,14.89,291.79,27.79Zm-16.85-4.74a7.39,7.39,0,0,0-.39-1c0-.06-.5,0-.52.09a7.46,7.46,0,0,0-.1,1.07Zm-3.17-6.38a6.24,6.24,0,0,0-.59.89c0,.08.27.48.33.45a6,6,0,0,0,.93-.51Z"/><path class="cls-6" d="M246.94,4l-2.35-.85,2.15-.07C246.81,3.4,246.88,3.7,246.94,4Z"/><path class="cls-9" d="M163.88,201.11q3.72-4,7.45-8c-.78,18-2.28,36.06-2.06,54.07.12,9.72,3.31,19.38,4.89,29.11,2.07,12.75,4.5,25.48,5.71,38.33,1.16,12.26,1,24.68,1.35,37-7.22-8-11.52-17.8-14.78-28.28-3.7-11.88-9.22-23.35-11.28-35.52a140.58,140.58,0,0,1-1.37-40c1.79-14.58,7-28.66,10.61-43C164.68,203.73,164.07,202.36,163.88,201.11Z"/><path class="cls-3" d="M186.27,258.44a4.74,4.74,0,0,0-1.13.08q-.07-36-.14-72v-2.66l.06-2.63,11.08,0c2.38,1.32,4.86,2.47,7.1,4s5.22,3.08,6.11,5.41c1.36,3.54,1.53,7.75,1.63,11.7.44,17,4.64,32.43,15.39,45.47,1.12,1.36.56,4.33.78,6.55l-1.34,1.34h-7.19l-5.16,0c-7.19,0-14.37-.14-21.55.15-1.93.07-3.81,1.49-5.72,2.29Z"/><path class="cls-9" d="M196.14,181.21l-11.08,0-3.79-.05c0-.42,0-.84,0-1.27l3.65-1.16,31.07-.08,4.92-.19,0,2.71Z"/><path class="cls-9" d="M185,183.82v0Z"/><path class="cls-2" d="M221,181.15l0-2.71c13.36-4,25.4-10.23,33.39-23.09,2.6-4.18,4.85-8.6,7.25-12.91l1.46,4.07c-2.28,4.89-4.57,9.77-6.76,14.46-1,.39-2.83.54-3.68,1.61a7.08,7.08,0,0,0-1,4.64c.29,3,1.7,5.91,1.54,8.79-.84,15.21,3.63,28.69,10.66,41.56,1.51,2.78,1.95,6.23,2.89,9.37l1.95,6.53c-.06,4.59-1.19,9.26-7.19,10.54-2.18.47-3.76,4.2-5.61,6.44l-2.6,1.51-18.6,3.8-6.16,1.07L226,257a6.89,6.89,0,0,0-.16-1.28l1.34-1.34c6.21-1.34,12.51-2.33,18.59-4.18a13.49,13.49,0,0,0,6.54-5.3c.54-.78-1.63-3.88-2.79-5.75s-3.25-3.61-4.09-5.76c-4.48-11.54-10.84-22.46-9.67-35.89.38-4.41.36-9.55-1.39-13.33C231.56,178.17,225.59,181.68,221,181.15Z"/><path class="cls-1" d="M186.19,258.15c1.91-.8,3.79-2.22,5.72-2.29,7.18-.29,14.36-.14,21.55-.15,0,.41.11.81.17,1.22L203.71,258,193.57,258l-4.72-.05Z"/><path class="cls-3" d="M203.71,258l9.92-1.07,4.75,0,2.35.77Z"/><path class="cls-1" d="M220.73,257.67l-2.35-.77.24-1.21h7.19A6.89,6.89,0,0,1,226,257Z"/><path class="cls-1" d="M228.47,256.83l6.16-1.07Z"/><path class="cls-3" d="M188.85,257.9l4.72.05Z"/><path class="cls-6" d="M255.83,250.45c1.85-2.24,3.43-6,5.61-6.44,6-1.28,7.13-5.95,7.19-10.54l-1.95-6.53c-.94-3.14-1.38-6.59-2.89-9.37-7-12.87-11.5-26.35-10.66-41.56.16-2.88-1.25-5.83-1.54-8.79a7.08,7.08,0,0,1,1-4.64c.85-1.07,2.69-1.22,3.68-1.61,2.19-4.69,4.48-9.57,6.76-14.46l5.17-2.25c1.14,4.74,3.69,9.43,3,13.45-3.73,20.83,3.48,38.37,13.07,55.38,2.66,4.73,7.12,8.92,1.73,16.2l6.93-1.61,2.11,0L279.26,240Z"/><path class="cls-1" d="M110.84.58c3.44.66,6.85,1.52,10.31,1.94a71.94,71.94,0,0,0,8,.12c1,.89,1.9,2.43,3,2.57,5.71.7,8.74,3.24,8.78,10.07a127,127,0,0,0,2,23.32c2,10.15,5.1,20,7.89,30.67h21.76L180,70.61H136.62c-6.35,0-12.7-.16-19.05,0-7.72.17-15.44.59-23.16.9L91,71.42c0-.7-.1-1.4-.16-2.1l9.88,0c6,0,12,.3,17.91-.08,8.69-.56,10-3,6.62-11.16-1.07-2.61-1.8-5.52-3.35-7.76-6.18-9-7.44-18.54-5.39-29.4,2.66-14.15-.92-17.46-14-14.35a5.33,5.33,0,0,1-1.68-.19c.27-1.37.51-2.61.76-3.85l.12-.12L104.38.13Z"/><path class="cls-3" d="M101.57,2.49c-.25,1.24-.49,2.48-.76,3.85a5.33,5.33,0,0,0,1.68.19c13.05-3.11,16.63.2,14,14.35-2,10.86-.79,20.45,5.39,29.4,1.55,2.24,2.28,5.15,3.35,7.76,3.38,8.18,2.07,10.6-6.62,11.16-6,.38-11.94.08-17.91.08,5.35-4.76,3.42-10,1.43-15.76A121,121,0,0,1,96.92,34.2c-2.15-12.65-3.19-13.75-14.48-11.58a4.14,4.14,0,0,1-.61,0L92.21,9.43c1.19-1.32,2.37-2.65,3.56-4l0,0a4.7,4.7,0,0,0,1.18-.14Z"/><path class="cls-3" d="M104.38.13l-2.69,2.24Z"/><path class="cls-10" d="M96.91,5.34a4.7,4.7,0,0,1-1.18.14Z"/><path class="cls-5" d="M82,359.63l-2.21-1.22c-.09-19.16-.27-38.33-.17-57.49,0-2.7,1.38-5.39,2.13-8.09a32.66,32.66,0,0,0,5.48-2.2c3.68-2.29,7-5.38,10.9-7.07,1.62-.7,5.32.63,6.25,2.25,2.55,4.44,4,9.58,6.13,14.33,1.93,4.36,4.13,8.58,6.21,12.86q0,14.64,0,29.3a77.28,77.28,0,0,1-7.78-5.05c-5.55-4.58-12.84-3.88-16.09,2.48-2.54,5-3.74,10.69-6.05,15.81C86,357.32,83.68,358.29,82,359.63Zm2.48-7.33-1.25-1.24c-.33.41-.91.82-.92,1.23s.59.82.92,1.23Z"/><path class="cls-11" d="M116.76,313c-2.08-4.28-4.28-8.5-6.21-12.86-2.11-4.75-3.58-9.89-6.13-14.33-.93-1.62-4.63-2.95-6.25-2.25-3.88,1.69-7.22,4.78-10.9,7.07a32.66,32.66,0,0,1-5.48,2.2c0-.34,0-.68,0-1q4.28-5.49,8.54-11l17.28-22.37H79.52l-2.52-.3c2.34-3.51,4.4-7.29,7.08-10.47,5.34-6.34,11-12.36,16.58-18.51l16.1-16.11L118,223.78l0,4,0,4q0,11.94-.07,23.88c-.36,12.29-.78,24.58-1.06,36.87C116.69,299.34,116.78,306.17,116.76,313Z"/><path class="cls-11" d="M28.61,226.39c1.74-.48,4-.36,5.14-1.52,5-5.15,9.93-9.58,17.37-5.41.41.23,1.17-.35,1.77-.39.35,0,.72.27,2,.79-8,8.16-2.65,14.71,1.81,21.73,2.15,3.38,3.25,7.53,4.67,11l-6.63,5.82H1.08L0,256.58Zm22.49,29.8L50,256a4.89,4.89,0,0,0,0,.85.61.61,0,0,0,.5.07A3.44,3.44,0,0,0,51.1,256.19Z"/><path class="cls-12" d="M79.52,258.44h28.07L90.31,280.81q-4.26,5.51-8.54,11c-.74-2.06-2-4.1-2.11-6.18C79.41,276.57,79.53,267.5,79.52,258.44Z"/><path class="cls-5" d="M79.55,392.91c1.39,5,3.16,10.13-1.07,14.71Q79,400.27,79.55,392.91Z"/><path class="cls-13" d="M117.9,255.65q0-11.94.08-23.88c0-1.34,0-2.67,0-4s0-2.66,0-4c2.11-1.42,4.77-2.38,6.24-4.35q15.27-20.52,30-41.48c1-1.47.62-4.12.88-6.21,2.94-4.57,7.21-8.71,8.59-13.77,5.11-18.73,9.26-37.77,13.77-56.69.51-1.85.9-3.77,1.57-5.56,1.82-4.85,3.76-9.65,5.65-14.47.16,3.1.31,6.21.47,9.31l0,10.65q-.09,10-.17,20c0,.47,0,.94,0,1.4q0,27.25,0,54.5a7.3,7.3,0,0,0-.06,1.32l-.08.3-3.65,1.16c-4.53,0-9.06-.05-13.58-.05-9.33,0-12.14,2.55-13.61,12.68-1.93,13.33-8.06,24.21-15.93,34.53-5.35,7-9,15.49-13.85,23C122.84,252.4,120.08,253.82,117.9,255.65Z"/><path class="cls-13" d="M82,359.63c1.64-1.34,4-2.31,4.81-4.09,2.31-5.12,3.51-10.85,6.05-15.81,3.25-6.36,10.54-7.06,16.09-2.48a77.28,77.28,0,0,0,7.78,5.05c.4,4.74,1.21,9.49,1.13,14.23-.2,11.66-.8,23.32-1.24,35-5.77,2.48-11.58,4.86-17.29,7.49-2.43,1.12-4.51,3.33-7,4.06s-6.4,1.41-7.73,0c-1.69-1.81-1.84-5.73-1.94-8.76C82.33,382.74,82.23,371.18,82,359.63Z"/><path class="cls-13" d="M116.76,213.05l-16.1,16.11c-2.27-4.86-6.36-9.68-6.44-14.58-.17-11.11-4.15-22.68,1.9-33.52,1-1.72,1-4.37.72-6.48a37.18,37.18,0,0,1,7.1-27.49c7.56-9.65,13-21.6,25.33-27,10.36-4.53,20-11.4,29.21-18.35,5.08-3.83,8.64-10,12.88-15.08l3.71-1.4c.11,1,.66,2.35.26,2.82-3.56,4.2-7.1,8.45-11,12.28-6,5.94-12.48,11.41-18.5,17.37-5.1,5-9.28,11.38-14.91,15.49-6.81,5-10.11,11.73-13,19.39-5.43,14.27-4,28.65-1.36,43.12.75,4.07,1.8,8.08,2.71,12.12C118.42,209.58,117.59,211.32,116.76,213.05Z"/><path class="cls-11" d="M175.07,85.26l-3.71,1.4c-2.14.36-4.29.79-6.44,1.06-7.84,1-15.68,2.25-23.55,2.72-2.78.16-5.67-1.64-8.51-2.55l12.46-13.25c4.24.84,8.45,2.17,12.72,2.42,7.32.43,14.68.19,22,.24Q177.57,81.28,175.07,85.26Z"/><path class="cls-11" d="M130.38,90.57l1.25-1.34C131.21,89.67,130.8,90.12,130.38,90.57Z"/><path class="cls-14" d="M292.92,227.68,286,229.29c5.39-7.28.93-11.47-1.73-16.2-9.59-17-16.8-34.55-13.07-55.38.72-4-1.83-8.71-3-13.45l-5.17,2.25-1.46-4.07c2.15-19.92.08-38.88-11.08-55.75.82,0,1.65,0,2.47,0q3.45-.12,6.9-.27c-.78-2.53-.86-6-2.49-7.43-4.63-4.08-4.19-9-4.46-14.61-.38-7.74-2.6-15.36-3.61-23.09-.88-6.67-.65-13.54-1.9-20.1-1-5.42-3.51-10.52-5.35-15.75,9.11,2.54,18,5.59,24.68,13.28a10,10,0,0,1,2.44,5.16c1,11.17,2.72,22.39,2.42,33.55-.39,14.82,5.21,28,7.66,42.05,1.57,9,2.38,18.21,3.76,27.29,3.5,23.06,5.58,46.54,16.13,67.64,1,2,2.51,4.23,4.31,5.14,5,2.52,6,5.33,2.43,10.21-3,4.14-6.58,7.84-9.7,11.92A43.73,43.73,0,0,0,292.92,227.68Z"/><path class="cls-2" d="M244.57,82.66a58,58,0,0,0-5.91-2.82c-7.94-2.76-15.92-5.38-23.88-8l-27.3-1.29c3.14-1.29,6.19-3.27,9.43-3.73,8.56-1.22,10.12-4.83,5.35-13-2.25-3.86-5.52-8-5.69-12.08a99.43,99.43,0,0,1,2.18-24.07c1.58-7.61-.62-12.16-7.69-12.22-4.11,0-8.24.24-12.32-.13-1.69-.15-3.28-1.64-4.91-2.52,10.54,0,21.09-.33,31.61.12a57.66,57.66,0,0,1,16,3.07c1.59.55,2.8,4.47,3.09,7C226,25,227.14,37.11,228.13,49.24,229.25,62.91,236.4,73,244.57,82.66Z"/><path class="cls-9" d="M173.83,2.72c1.63.88,3.22,2.37,4.91,2.52,4.08.37,8.21.1,12.32.13,7.07.06,9.27,4.61,7.69,12.22a99.43,99.43,0,0,0-2.18,24.07c.17,4.12,3.44,8.22,5.69,12.08,4.77,8.2,3.21,11.81-5.35,13-3.24.46-6.29,2.44-9.43,3.73q-.06.5-.09,1c-.39.13-.78.27-1.16.43l-6.12-.37c0-.31,0-.63-.07-.94l-7.46-1.34c1.13-1.87,3.4-3.94,3.16-5.58-.59-4-1.64-8.36-3.78-11.62-4.12-6.27-4.8-13-4.27-20.17.46-6.35,1.35-12.66,1.91-19,.41-4.5-.49-7.92-5.82-7.59a66.46,66.46,0,0,1-11.11-.08c-1.69-.19-3.26-1.67-4.89-2.56Z"/><path class="cls-15" d="M147.78,2.68c1.63.89,3.2,2.37,4.89,2.56a66.46,66.46,0,0,0,11.11.08c5.33-.33,6.23,3.09,5.82,7.59-.56,6.33-1.45,12.64-1.91,19-.53,7.14.15,13.9,4.27,20.17,2.14,3.26,3.19,7.61,3.78,11.62.24,1.64-2,3.71-3.16,5.58H150.82C148,58.65,144.9,48.75,142.93,38.6a127,127,0,0,1-2-23.32c0-6.83-3.07-9.37-8.78-10.07-1.07-.14-2-1.68-3-2.57Z"/><path class="cls-1" d="M137.84.43l11.2,0Z"/><path class="cls-9" d="M161.45.38l9.88,0Z"/><path class="cls-9" d="M183.77.27h0Z"/><path class="cls-9" d="M154,.36h0Z"/><path class="cls-6" d="M239.71,2.58l-2.49-.83Z"/><path class="cls-7" d="M274.94,23.05l-1,.14a7.46,7.46,0,0,1,.1-1.07c0-.08.48-.15.52-.09A7.39,7.39,0,0,1,274.94,23.05Z"/><path class="cls-7" d="M271.77,16.67l.67.83a6,6,0,0,1-.93.51c-.06,0-.37-.37-.33-.45A6.24,6.24,0,0,1,271.77,16.67Z"/><path class="cls-15" d="M221,181.15c4.61.53,10.58-3,13.36,3,1.75,3.78,1.77,8.92,1.39,13.33-1.17,13.43,5.19,24.35,9.67,35.89.84,2.15,2.84,3.75,4.09,5.76s3.33,5,2.79,5.75a13.49,13.49,0,0,1-6.54,5.3c-6.08,1.85-12.38,2.84-18.59,4.18-.22-2.22.34-5.19-.78-6.55-10.75-13-15-28.46-15.39-45.47-.1-4-.27-8.16-1.63-11.7-.89-2.33-3.87-3.85-6.11-5.41s-4.72-2.7-7.1-4Z"/><path class="cls-2" d="M218.62,255.69l-.24,1.21-4.75,0c-.06-.41-.12-.81-.17-1.22Z"/><path class="cls-4" d="M203.67,178.31l12.36.32-31.07.08.08-.3,2.43.08Z"/><path class="cls-13" d="M91,71.42q-24.7.21-49.41.4c-1.4,0-2.8-.16-4.18-.24L68.23,37.1c5.19,3.3,10.49,6.59,12.29,13.36,1.58,5.91,2.8,11.93,4.34,18.58l5.93.28C90.85,70,90.9,70.72,91,71.42Z"/><path class="cls-4" d="M90.79,69.32,84.86,69c-1.54-6.65-2.76-12.67-4.34-18.58-1.8-6.77-7.1-10.06-12.29-13.36l13.6-14.48a4.14,4.14,0,0,0,.61,0c11.29-2.17,12.33-1.07,14.48,11.58a121,121,0,0,0,5.18,19.32c2,5.72,3.92,11-1.43,15.76Z"/><path class="cls-3" d="M180,70.61c0,.31.06.63.07.94L145.3,72l-8.6-.27c0-.35-.06-.7-.08-1.06Z"/><path class="cls-13" d="M136.62,70.62c0,.36,0,.71.08,1.06l-42.29-.17c7.72-.31,15.44-.73,23.16-.9C123.92,70.46,130.27,70.61,136.62,70.62Z"/><path class="cls-13" d="M84.52,352.3l-1.25,1.22c-.33-.41-.92-.82-.92-1.23s.59-.82.92-1.23Z"/><path class="cls-5" d="M116.76,213.05c.83-1.73,1.66-3.47,2.5-5.2l21.06-21.39,14.84-14.73c-.26,2.1.15,4.75-.88,6.22q-14.76,20.94-30,41.48c-1.47,2-4.13,2.93-6.24,4.35Z"/><path class="cls-5" d="M118,227.77c0,1.33,0,2.66,0,4C118,230.43,118,229.1,118,227.77Z"/><path class="cls-5" d="M51.1,256.19a3.44,3.44,0,0,1-.61.68.61.61,0,0,1-.5-.07,4.89,4.89,0,0,1,0-.85Z"/><path class="cls-4" d="M140.32,186.46l-21.06,21.39c-.91-4-2-8-2.71-12.12-2.67-14.47-4.07-28.85,1.36-43.12,2.91-7.66,6.21-14.41,13-19.39,5.63-4.11,9.81-10.46,14.91-15.49,6-6,12.46-11.43,18.5-17.37,3.89-3.83,7.43-8.08,11-12.28.4-.47-.15-1.86-.26-2.82q2.51-4,5-8c.36-.06.73-.1,1.09-.13l3.66.18.3-.09c0,.45,0,.9,0,1.35-.12.88-.23,1.76-.35,2.64-1.89,4.82-3.83,9.62-5.65,14.47-.67,1.79-1.06,3.71-1.57,5.56-1.39.74-3.05,1.16-4.11,2.25C168.8,108.24,164,112.8,160,118c-5.68,7.4-10.75,15.34-16.06,23.07-5.91,8.61-4.74,19-5.77,28.72C137.57,175.21,139.51,180.91,140.32,186.46Z"/><path class="cls-3" d="M140.32,186.46c-.81-5.55-2.75-11.25-2.18-16.63,1-9.7-.14-20.11,5.77-28.72,5.31-7.73,10.38-15.67,16.06-23.07,4-5.24,8.83-9.8,13.44-14.51,1.06-1.09,2.72-1.51,4.11-2.25-4.51,18.92-8.66,38-13.77,56.69-1.38,5.06-5.65,9.2-8.59,13.77Z"/><path class="cls-11" d="M185.1,177.09l2.37,1.4-2.43-.08A7.3,7.3,0,0,1,185.1,177.09Z"/><path class="cls-11" d="M185.07,121.19a6.19,6.19,0,0,1,.38,1c0,.11-.24.28-.37.42C185.08,122.13,185.07,121.66,185.07,121.19Z"/><path class="cls-12" d="M181.15,77.17c-.36,0-.73.07-1.09.13-7.34,0-14.7.19-22-.24-4.27-.25-8.48-1.58-12.72-2.42,0-.9,0-1.8,0-2.69l34.81-.4,6.12.37L185,74.63Z"/><path class="cls-3" d="M187.39,71.49q0-.49.09-1l27.3,1.29Z"/><path class="cls-13" d="M181.15,77.17,185,74.63l-.18,2.72Z"/><path class="cls-12" d="M185.09,78.61c0-.45,0-.9,0-1.35a6.91,6.91,0,0,1,.35,1C185.47,78.32,185.22,78.47,185.09,78.61Z"/></g></g></svg>